<svg xmlns="http://www.w3.org/2000/svg" viewBox="0 0 100 100">
  <defs>
    <linearGradient id="grad" x1="0%" y1="0%" x2="100%" y2="100%">
      <stop offset="0%" style="stop-color:#6366f1;stop-opacity:1" />
      <stop offset="100%" style="stop-color:#8b5cf6;stop-opacity:1" />
    </linearGradient>
  </defs>
  <rect width="100" height="100" rx="20" fill="url(#grad)"/>
  <path d="M50 25 C30 25 20 40 20 50 C20 60 30 75 50 75 C60 75 68 70 73 65 L65 57 C62 60 57 63 50 63 C38 63 32 55 32 50 C32 45 38 37 50 37 C57 37 62 40 65 43 L73 35 C68 30 60 25 50 25Z" fill="white"/>
  <circle cx="72" cy="35" r="8" fill="white" opacity="0.8"/>
</svg>
